<svg xmlns="http://www.w3.org/2000/svg" width="113" height="23" viewBox="0 0 113 22.785" aria-hidden="true">
  <g fill="#060706">
    <path d="M47.641 10.091h1.588a14.52 14.52 0 0 1 3.378.488v-2.8h-5.773a7.29 7.29 0 0 0-7.478 7.523c0 4.394 2.65 7.485 8.672 7.485a15.928 15.928 0 0 0 4.58-.634v-2.412a14.808 14.808 0 0 1-4.58.636c-1.492 0-2.472-1.239-2.472-3.763v-3.946c0-2.081 1.231-2.576 2.085-2.576"/>
    <path d="M69.503 20.669v-8.55c0-4.4-3.248-4.338-7.479-4.338H56.25v2.8a14.5 14.5 0 0 1 3.379-.489h2.164c.853 0 1.608.456 1.608 1.107v1.031h-3.055c-4.231 0-6.132 1.945-6.132 5.453 0 3.617 3.147 5.1 5.581 5.1h11.574v-1.129zm-7.61-.293a1.519 1.519 0 0 1-1.477-1.7v-2.664a1.57 1.57 0 0 1 1.477-1.7h1.476l.033 6.064z"/>
    <path d="m34.991 21.656-1.646-.985v-7.437a2.441 2.441 0 0 1 1.946-2.506 11.084 11.084 0 0 1 4.321-.148v-2.8h-4.014l-2.253 2.108V7.78h-3.741l-3.739.943v1.369h1.378v10.578l-1.424.985v1.129h9.172z"/>
    <path d="M113 16.342v-1.056c-.01-4.782-3.451-7.505-7.708-7.505a7.369 7.369 0 0 0-7.672 7.42c0 4.4 2.646 7.583 8.669 7.583a15.9 15.9 0 0 0 4.58-.636v-2.147a15.926 15.926 0 0 1-3.451.371c-2.92 0-3.6-1.842-3.6-3.7v-.339zm-9.184-2.084v-2.12c0-1.395.688-1.915 1.476-1.915a1.365 1.365 0 0 1 1.508 1.445v2.59z"/>
    <path d="M74.918 4.342v3.439l-3.082.94v1.371h3.082v10.578l-2.088.987v1.129h10.169v-1.129l-1.99-.987V10.091h5.96v10.578l-2.088.987v1.129h10.167v-1.129l-1.989-.987V10.091l1.747.032c2.329.133 2.756.456 2.756.456v-2.8h-4.5V3.601c0-.978.768-1.289 1.62-1.289h.97a5.343 5.343 0 0 1 1.831.379V0h-4.227c-4.407 0-6.28.666-6.281 4.342v3.439h-5.956V3.956a1.443 1.443 0 0 1 1.618-1.642h.97a5.335 5.335 0 0 1 1.831.379V0H80.268c-3.795 0-5.349 1.325-5.353 4.342"/>
    <path d="M10.653 4.364h.262l3.285 9.735H6.984zM6.667 0v1.372l1.95.656-7.074 18.641L0 21.656v1.129h6.1v-1.129l-1.47-.987 1.437-4.269h9.015l1.474 4.264-1.507.987v1.129h9.774v-1.129l-1.51-.987L15.528 0z"/>
    <path d="M103.323 5.324h1.17a19.535 19.535 0 0 1 6.39 1.338V2.938h-7.56z"/>
  </g>
</svg>
